<svg xmlns="http://www.w3.org/2000/svg" viewBox="0 0 400 250" fill="none">
  <rect width="400" height="250" rx="16" fill="#f1f5f9"/>

  <!-- Car body -->
  <path d="M60 170 Q60 155 75 150 L100 148 L130 120 Q145 108 170 105 L260 105 Q280 105 295 115 L320 140 L345 148 Q355 150 360 160 L360 175 Q360 185 350 185 L50 185 Q40 185 40 175 Z" fill="#64748b"/>

  <!-- Roof -->
  <path d="M135 120 Q140 95 165 88 L255 88 Q275 88 290 105 L295 115 L130 120 Z" fill="#475569"/>

  <!-- Windows -->
  <path d="M142 118 L165 93 L210 93 L210 118 Z" fill="#bfdbfe" opacity="0.7"/>
  <path d="M215 93 L255 93 Q270 93 282 108 L288 118 L215 118 Z" fill="#bfdbfe" opacity="0.7"/>

  <!-- Wheels -->
  <circle cx="110" cy="185" r="22" fill="#1e293b"/>
  <circle cx="110" cy="185" r="14" fill="#475569"/>
  <circle cx="110" cy="185" r="5" fill="#94a3b8"/>

  <circle cx="310" cy="185" r="22" fill="#1e293b"/>
  <circle cx="310" cy="185" r="14" fill="#475569"/>
  <circle cx="310" cy="185" r="5" fill="#94a3b8"/>

  <!-- Headlights -->
  <rect x="340" y="152" width="18" height="8" rx="3" fill="#fbbf24"/>
  <rect x="42" y="155" width="16" height="7" rx="3" fill="#ef4444" opacity="0.8"/>

  <!-- Door line -->
  <line x1="213" y1="118" x2="213" y2="170" stroke="#475569" stroke-width="1.5"/>

  <!-- Porsche text -->
  <text x="200" y="220" text-anchor="middle" font-family="system-ui, sans-serif" font-size="13" font-weight="600" fill="#94a3b8" letter-spacing="3">PORSCHE</text>
</svg>
